<svg width="511" height="511" viewBox="0 0 511 511" fill="none" xmlns="http://www.w3.org/2000/svg">
<g clip-path="url(#clip0)">
<path d="M354.799 56.623C333.715 61.6951 312.327 74.2682 294.569 92.0265C276.815 109.781 264.241 131.173 259.165 152.256C253.778 174.646 257.524 193.691 269.715 205.882C278.269 214.436 290.195 218.833 304.288 218.833C310.28 218.833 316.662 218.038 323.345 216.432C344.425 211.356 365.816 198.783 383.571 181.028C401.325 163.27 413.898 141.882 418.974 120.798C424.362 98.4085 420.62 79.3637 408.425 67.1727C396.237 54.9817 377.189 51.2351 354.799 56.623V56.623ZM372.986 170.44C351.75 191.676 324.998 203.851 304.343 203.851C294.546 203.851 286.113 201.11 280.304 195.297C262.234 177.231 273.852 133.921 305.158 102.615C326.39 81.3793 353.142 69.2078 373.801 69.2078C383.598 69.2078 392.027 71.9485 397.84 77.7614C415.906 95.8237 404.292 139.134 372.986 170.44ZM451.82 174.167C447.688 174.167 444.335 177.516 444.335 181.652V202.311C444.335 206.447 447.688 209.796 451.82 209.796C455.957 209.796 459.306 206.447 459.306 202.311V181.652C459.306 177.516 455.957 174.167 451.82 174.167ZM464.561 98.0927C463.805 73.8355 455.111 52.5216 439.095 36.5022C417.528 14.931 386.354 6.63474 351.325 13.1338C320.284 18.8959 289.236 36.0226 263.902 61.3559C238.565 86.6931 221.438 117.742 215.68 148.779C210.429 177.067 214.834 202.829 228.078 223.063L96.5886 354.553C94.4561 354.046 92.2533 353.777 90.0077 353.777C82.4873 353.777 75.4151 356.708 70.0974 362.026L40.4054 391.718C37.4814 394.638 37.4814 399.379 40.4054 402.303C43.3255 405.227 48.0662 405.227 50.9902 402.303L60.5146 392.775L107.407 439.667L69.076 477.999C64.4249 482.65 58.2378 485.211 51.6569 485.211C45.076 485.211 38.8889 482.65 34.2378 477.999L22.1871 465.948C12.5809 456.342 12.5809 440.712 22.1871 431.106L26.0039 427.289C28.9278 424.365 28.9278 419.629 26.0039 416.705C23.0799 413.781 18.3392 413.781 15.4152 416.705L11.5984 420.521C4.12085 428.003 0 437.948 0 448.525C0 459.106 4.12085 469.051 11.5984 476.533L23.6491 488.584C31.1306 496.065 41.076 500.182 51.6569 500.182C62.2339 500.182 72.1793 496.065 79.6607 488.584L123.279 444.966L123.286 444.958C123.286 444.958 123.286 444.958 123.29 444.954L138.16 430.085C143.477 424.767 146.405 417.695 146.405 410.174C146.405 407.929 146.14 405.726 145.633 403.593L288.331 260.9C292.331 261.5 296.425 261.87 300.612 262.003C330.526 284.728 371.941 308.463 414.479 308.463C423.746 308.463 433.08 307.336 442.343 304.826C446.335 303.742 448.69 299.633 447.61 295.64C446.526 291.652 442.417 289.289 438.428 290.373C398.662 301.153 356.538 282.284 324.058 260.397C324.978 260.249 325.894 260.089 326.818 259.917C357.859 254.159 388.904 237.032 414.241 211.695C439.579 186.358 456.705 155.313 462.464 124.272C462.635 123.336 462.795 122.409 462.947 121.481C485.922 155.407 497.025 186.982 495.961 215.535C494.869 244.853 481.255 262.677 473.239 270.693C471.36 272.572 469.294 274.401 467.091 276.132C463.84 278.685 463.278 283.391 465.832 286.642C467.31 288.521 469.504 289.504 471.723 289.504C473.341 289.504 474.97 288.978 476.343 287.902C479.013 285.804 481.528 283.574 483.824 281.282C493.391 271.711 509.637 250.518 510.92 216.093C512.269 180.011 496.662 140.319 464.561 98.0927V98.0927ZM127.571 419.5L117.992 429.079L71.1033 382.19L80.6822 372.611C83.1734 370.12 86.4873 368.747 90.0077 368.747C91.766 368.747 93.4697 369.087 95.0447 369.738C95.2865 369.87 95.5321 369.987 95.7816 370.085C97.0798 370.72 98.2845 371.558 99.3332 372.611L127.571 400.849C128.624 401.898 129.462 403.102 130.097 404.4C130.199 404.65 130.316 404.896 130.444 405.137C131.095 406.712 131.435 408.416 131.435 410.174C131.435 413.699 130.062 417.009 127.571 419.5ZM137.976 390.081L110.101 362.209L237.431 234.88C237.961 235.442 238.495 236.003 239.045 236.553C248.214 245.722 259.13 252.475 271.329 256.728L137.976 390.081ZM447.742 121.543C442.53 149.637 426.873 177.894 403.653 201.11C380.436 224.327 352.179 239.987 324.085 245.2C294.05 250.775 267.61 243.944 249.629 225.968C231.653 207.987 224.822 181.547 230.397 151.512C235.61 123.418 251.267 95.161 274.487 71.9407C297.703 48.7244 325.961 33.0675 354.054 27.855C360.881 26.5879 367.52 25.9642 373.918 25.9642C395.672 25.9642 414.62 33.2 428.506 47.0908C446.487 65.0635 453.317 91.508 447.742 121.543V121.543ZM484.619 233.508V212.849C484.619 208.716 481.267 205.364 477.134 205.364C472.998 205.364 469.649 208.716 469.649 212.849V233.508C469.649 237.644 472.998 240.993 477.134 240.993C481.267 240.993 484.619 237.644 484.619 233.508ZM309.341 140.615C305.204 140.615 301.855 143.964 301.855 148.1V168.759C301.855 172.896 305.204 176.245 309.341 176.245C313.473 176.245 316.826 172.896 316.826 168.759V148.1C316.826 143.964 313.473 140.615 309.341 140.615Z" fill="#004BB4"/>
</g>
<defs>
<clipPath id="clip0">
<rect width="511" height="511" fill="white"/>
</clipPath>
</defs>
</svg>
