<?xml version="1.0"?>
<svg xmlns="http://www.w3.org/2000/svg" viewBox="0 0 64 64" width="512px" height="512px" class=""><g><g id="solid"><path d="M18.137,13.646,18,13.665v7.186A22.987,22.987,0,0,0,20.327,30.89,7.01,7.01,0,0,1,27,26H37a7.012,7.012,0,0,1,6.674,4.89A23,23,0,0,0,46,20.851V13.665A37.837,37.837,0,0,1,32,8.829,37.323,37.323,0,0,1,18.137,13.646ZM22,25H20V23h2Zm0-8H20V15h2Zm20-2h2v2H42Zm0,8h2v2H42Zm-4-5a6,6,0,1,1-6-6A6.007,6.007,0,0,1,38,18Z" data-original="#000000" class="active-path" data-old_color="#000000" fill="#004BB4"/><path d="M37,28H27a5.006,5.006,0,0,0-5,5v.784a22.915,22.915,0,0,0,5.357,5.584L32,42.789l4.644-3.422A22.92,22.92,0,0,0,42,33.785V33A5.006,5.006,0,0,0,37,28ZM26,33H24V31h2Zm7,7H31V38h2Zm7-7H38V31h2Z" data-original="#000000" class="active-path" data-old_color="#000000" fill="#004BB4"/><path d="M50,20.851V9.985A33.5,33.5,0,0,1,33.768,5.226L32,4.166l-1.769,1.06A33.493,33.493,0,0,1,14,9.985V20.851A27.1,27.1,0,0,0,24.984,42.587L32,47.757l7.016-5.17A27.1,27.1,0,0,0,50,20.851ZM37.83,40.976l-5.237,3.859a1,1,0,0,1-1.186,0L26.17,40.977A25.094,25.094,0,0,1,16,20.851V12.78a1,1,0,0,1,.89-.994c.325-.036.65-.077.973-.12a35.346,35.346,0,0,0,13.4-4.725l.224-.135a1,1,0,0,1,1.032,0l.225.136A35.752,35.752,0,0,0,47.11,11.786a1,1,0,0,1,.89.994v8.071A25.09,25.09,0,0,1,37.83,40.976Z" data-original="#000000" class="active-path" data-old_color="#000000" fill="#004BB4"/><circle cx="32" cy="18" r="4" data-original="#000000" class="active-path" data-old_color="#000000" fill="#004BB4"/><path d="M58.5,28A1.5,1.5,0,0,0,57,29.5V41a1,1,0,0,1-.248.658l-7,8a1,1,0,1,1-1.506-1.314l5.216-5.993a1.471,1.471,0,1,0-2.209-1.943L46.759,45.65a1,1,0,0,1-.312.245A9.8,9.8,0,0,0,41,54.708V60h9.446l8.49-13.585A6.989,6.989,0,0,0,60,42.706V29.5A1.5,1.5,0,0,0,58.5,28Z" data-original="#000000" class="active-path" data-old_color="#000000" fill="#004BB4"/><path d="M13.554,60H23V54.708A9.8,9.8,0,0,0,17.553,45.9a1,1,0,0,1-.312-.245l-4.494-5.242a1.474,1.474,0,0,0-2-.22,1.472,1.472,0,0,0-.217,2.155l5.223,6a1,1,0,1,1-1.506,1.314l-7-8A1,1,0,0,1,7,41V29.5a1.5,1.5,0,0,0-3,0V42.706a6.989,6.989,0,0,0,1.064,3.709Z" data-original="#000000" class="active-path" data-old_color="#000000" fill="#004BB4"/></g></g> </svg>
